<svg width="49" height="48" viewBox="0 0 49 48" fill="none" xmlns="http://www.w3.org/2000/svg">
<g filter="url(#filter0_i_13_2384)">
<rect x="0.80957" y="0.5" width="47" height="47" rx="23.5" stroke="#09080F" stroke-opacity="0.05"/>
<g clip-path="url(#clip0_13_2384)">
<path d="M31.8094 24.572L24.3094 32L16.8094 24.572C16.3147 24.0906 15.925 23.512 15.6649 22.8726C15.4048 22.2333 15.2799 21.5469 15.2981 20.8569C15.3163 20.1669 15.4771 19.4881 15.7705 18.8633C16.0639 18.2385 16.4835 17.6812 17.0029 17.2266C17.5222 16.7719 18.1301 16.4297 18.7882 16.2215C19.4463 16.0133 20.1404 15.9436 20.8268 16.0168C21.5131 16.09 22.1769 16.3046 22.7763 16.6469C23.3756 16.9892 23.8976 17.452 24.3094 18.006C24.7229 17.456 25.2455 16.9973 25.8445 16.6586C26.4434 16.3199 27.1059 16.1084 27.7903 16.0375C28.4748 15.9666 29.1665 16.0377 29.8222 16.2464C30.4778 16.4551 31.0834 16.7969 31.6009 17.2504C32.1185 17.7038 32.5368 18.2593 32.8298 18.8819C33.1228 19.5045 33.2841 20.1809 33.3037 20.8687C33.3233 21.5565 33.2006 22.241 32.9435 22.8792C32.6864 23.5175 32.3003 24.0958 31.8094 24.578" stroke="#3A3A3A" stroke-width="1.5" stroke-linecap="round" stroke-linejoin="round"/>
</g>
</g>
<defs>
<filter id="filter0_i_13_2384" x="0.30957" y="0" width="48" height="52" filterUnits="userSpaceOnUse" color-interpolation-filters="sRGB">
<feFlood flood-opacity="0" result="BackgroundImageFix"/>
<feBlend mode="normal" in="SourceGraphic" in2="BackgroundImageFix" result="shape"/>
<feColorMatrix in="SourceAlpha" type="matrix" values="0 0 0 0 0 0 0 0 0 0 0 0 0 0 0 0 0 0 127 0" result="hardAlpha"/>
<feOffset dy="4"/>
<feGaussianBlur stdDeviation="25"/>
<feComposite in2="hardAlpha" operator="arithmetic" k2="-1" k3="1"/>
<feColorMatrix type="matrix" values="0 0 0 0 0.0431373 0 0 0 0 0.0431373 0 0 0 0 0.0431373 0 0 0 0.15 0"/>
<feBlend mode="normal" in2="shape" result="effect1_innerShadow_13_2384"/>
</filter>
<clipPath id="clip0_13_2384">
<rect width="24" height="24" fill="white" transform="translate(12.3096 12)"/>
</clipPath>
</defs>
</svg>
